<?xml version="1.0" encoding="iso-8859-1"?>
<!-- Generator: Adobe Illustrator 19.0.0, SVG Export Plug-In . SVG Version: 6.00 Build 0)  -->
<svg version="1.1" id="Capa_1" xmlns="http://www.w3.org/2000/svg" xmlns:xlink="http://www.w3.org/1999/xlink" x="0px" y="0px"
	 viewBox="0 0 512 512" style="enable-background:new 0 0 512 512;" xml:space="preserve">
<path style="fill:#F23466;" d="M259.495,391.471c0,65.883,53.408,119.291,119.291,119.291s119.291-53.408,119.291-119.291
	c-33.055-33.055-86.646-33.055-119.7,0h0.817C346.141,358.417,292.55,358.417,259.495,391.471z"/>
<path style="opacity:0.1;enable-background:new    ;" d="M479.446,377.4c-2.351,63.811-54.813,114.822-119.199,114.822
	c-28.219,0-54.143-9.804-74.568-26.184c21.862,27.262,55.443,44.723,93.107,44.723c65.883,0,119.291-53.408,119.291-119.291
	C492.405,385.799,486.119,381.126,479.446,377.4z"/>
<path style="fill:#F9C5B5;" d="M183.361,238.549c-28.382,18.068-125.134,88.37-147.111,219.109C31.466,486.11,53.552,512,82.403,512
	h69.228c21.86,0,39.582-17.722,39.582-39.582V242.847C191.212,238.815,186.762,236.384,183.361,238.549z"/>
<path style="opacity:0.1;enable-background:new    ;" d="M183.755,238.549c-3.107,1.978-7.035,4.583-11.594,7.824v216.594
	c0,16.34-13.247,29.587-29.587,29.587H63.351c-7.973,0-15.424-1.985-21.938-5.446C49.21,501.771,64.665,512,82.797,512h69.228
	c21.86,0,39.582-17.722,39.582-39.582V242.847C191.606,238.815,187.156,236.384,183.755,238.549z"/>
<g style="opacity:0.1;">
	<path d="M148.164,480.711c-3.75,0-6.871-2.698-7.526-6.259c-2.266-1.845-10.985-4.903-24.129-4.903s-21.862,3.058-24.129,4.903
		c-0.656,3.561-3.776,6.259-7.526,6.259c-4.227,0-7.654-3.427-7.654-7.654c0-12.998,19.743-18.816,39.309-18.816
		s39.309,5.818,39.309,18.816C155.818,477.284,152.392,480.711,148.164,480.711z M140.51,473.057c0,0.002,0,0.004,0,0.006
		C140.51,473.06,140.51,473.059,140.51,473.057z M92.507,473.057c0,0.002,0,0.004,0,0.006
		C92.507,473.06,92.507,473.059,92.507,473.057z"/>
</g>
<g>
	<path style="fill:#342E30;" d="M141.216,61.02c-4.227,0-7.654-3.427-7.654-7.654V7.654c0-4.227,3.427-7.654,7.654-7.654
		c4.227,0,7.654,3.427,7.654,7.654v45.713C148.869,57.593,145.442,61.02,141.216,61.02z"/>
	<path style="fill:#342E30;" d="M171.308,63.901c-1.082,0-2.18-0.231-3.225-0.717c-3.832-1.784-5.492-6.336-3.708-10.168
		l19.901-42.749c1.784-3.832,6.337-5.493,10.168-3.708c3.832,1.784,5.492,6.336,3.708,10.168l-19.901,42.749
		C176.953,62.263,174.192,63.901,171.308,63.901z"/>
	<path style="fill:#342E30;" d="M109.785,61.022c-2.885,0-5.646-1.638-6.943-4.426l-18.561-39.87
		c-1.784-3.832-0.123-8.384,3.708-10.168c3.83-1.784,8.384-0.124,10.168,3.708l18.561,39.87c1.784,3.832,0.123,8.384-3.708,10.168
		C111.965,60.791,110.866,61.022,109.785,61.022z"/>
</g>
<path style="fill:#E3E3E3;" d="M265.555,123.988c0,0-57.283,81.852-127.946,81.852S9.664,123.988,9.664,123.988
	s57.283-81.852,127.946-81.852S265.555,123.988,265.555,123.988z"/>
<path style="opacity:0.1;enable-background:new    ;" d="M137.609,182.16c-53.741,0-99.736-47.337-118.687-70.013
	c-5.967,7.139-9.26,11.841-9.26,11.841s57.283,81.852,127.946,81.852s127.946-81.852,127.946-81.852s-3.292-4.7-9.26-11.841
	C237.345,134.823,191.35,182.16,137.609,182.16z"/>
<path style="fill:#3A9CB4;" d="M91.512,145.562c25.459,25.459,66.737,25.459,92.196,0s25.459-66.737,0-92.196v-0.225
	c-14.303-6.669-29.845-11.006-46.098-11.006s-31.794,4.337-46.097,11.006v0.225C66.052,78.826,66.052,120.103,91.512,145.562z"/>
<circle style="fill:#342E30;" cx="137.613" cy="96.426" r="27.486"/>
<g style="opacity:0.1;">
	<path d="M86.839,415.346c-0.85,0-1.713-0.143-2.559-0.443c-3.984-1.413-6.067-5.789-4.654-9.772
		c1.103-3.109,27.637-76.547,81.494-111.493c3.545-2.3,8.285-1.292,10.587,2.254c2.301,3.546,1.292,8.286-2.254,10.587
		c-49.547,32.149-75.148,103.058-75.401,103.771C92.938,413.386,89.988,415.346,86.839,415.346z"/>
</g>
<path style="fill:#342E30;" d="M462.404,75.722c-4.132,0-8.264-1.577-11.416-4.729c-41.106-41.105-107.992-41.106-149.1,0
	c-6.306,6.306-16.528,6.305-22.833,0c-6.306-6.306-6.306-16.528,0-22.833c53.697-53.698,141.069-53.698,194.766,0
	c6.306,6.306,6.306,16.528,0,22.833C470.668,74.146,466.536,75.722,462.404,75.722z"/>
<path style="fill:#65CDEF;" d="M274.325,297.189c0,11.787-9.555,21.341-21.341,21.341c-11.787,0-21.341-9.555-21.341-21.341
	s21.341-41.269,21.341-41.269S274.325,285.403,274.325,297.189z"/>
<g>
	<path style="fill:#342E30;" d="M441.317,211.187c0-4.227,3.427-7.654,7.654-7.654h45.713c4.227,0,7.654,3.427,7.654,7.654
		c0,4.227-3.427,7.654-7.654,7.654h-45.713C444.744,218.84,441.317,215.414,441.317,211.187z"/>
	<path style="fill:#342E30;" d="M438.437,241.279c0-1.082,0.231-2.18,0.717-3.225c1.784-3.832,6.336-5.492,10.168-3.708
		l42.749,19.901c3.832,1.784,5.493,6.337,3.708,10.168c-1.784,3.832-6.336,5.492-10.168,3.708l-42.749-19.901
		C440.074,246.924,438.437,244.163,438.437,241.279z"/>
	<path style="fill:#342E30;" d="M441.315,179.756c0-2.885,1.638-5.646,4.426-6.943l39.87-18.561
		c3.832-1.784,8.384-0.123,10.168,3.708c1.784,3.83,0.125,8.384-3.708,10.168l-39.87,18.561c-3.832,1.784-8.384,0.123-10.168-3.708
		C441.546,181.937,441.315,180.838,441.315,179.756z"/>
</g>
<path style="fill:#E3E3E3;" d="M378.349,335.526c0,0-81.852-57.283-81.852-127.946s81.852-127.946,81.852-127.946
	s81.852,57.283,81.852,127.946S378.349,335.526,378.349,335.526z"/>
<path style="opacity:0.1;enable-background:new    ;" d="M320.177,207.58c0-53.741,47.337-99.736,70.013-118.687
	c-7.139-5.967-11.841-9.26-11.841-9.26s-81.852,57.283-81.852,127.946s81.852,127.946,81.852,127.946s4.7-3.292,11.841-9.26
	C367.515,307.317,320.177,261.321,320.177,207.58z"/>
<path style="fill:#3A9CB4;" d="M356.775,161.483c-25.459,25.459-25.459,66.737,0,92.196c25.459,25.459,66.737,25.459,92.196,0h0.225
	c6.669-14.303,11.006-29.845,11.006-46.098s-4.337-31.794-11.006-46.097h-0.225C423.512,136.023,382.234,136.023,356.775,161.483z"
	/>
<circle style="fill:#342E30;" cx="405.91" cy="207.577" r="27.486"/>
<path style="fill:#CD315B;" d="M490.926,386.06c-62.2,62.2-163.375,62.248-225.637,0.146c-1.989,1.655-3.929,3.4-5.794,5.266
	c0,3.65,0.173,7.259,0.494,10.825c33.323,30.494,75.68,45.75,118.044,45.75c43.063,0,86.119-15.763,119.685-47.271
	c0.237-3.071,0.359-6.173,0.359-9.304c-2.112-2.112-4.311-4.085-6.58-5.928C491.301,385.704,491.11,385.876,490.926,386.06z"/>
<g>
</g>
<g>
</g>
<g>
</g>
<g>
</g>
<g>
</g>
<g>
</g>
<g>
</g>
<g>
</g>
<g>
</g>
<g>
</g>
<g>
</g>
<g>
</g>
<g>
</g>
<g>
</g>
<g>
</g>
</svg>
