<?xml version="1.0" encoding="UTF-8" standalone="no"?>
<svg
   xmlns:dc="http://purl.org/dc/elements/1.1/"
   xmlns:cc="http://creativecommons.org/ns#"
   xmlns:rdf="http://www.w3.org/1999/02/22-rdf-syntax-ns#"
   xmlns:svg="http://www.w3.org/2000/svg"
   xmlns="http://www.w3.org/2000/svg"
   id="svg4859"
   version="1.1"
   viewBox="0 0 32.266251 41.631649"
   height="157.34796"
   width="121.95119">
  <defs
     id="defs4853" />
  <metadata
     id="metadata4856">
    <rdf:RDF>
      <cc:Work
         rdf:about="">
        <dc:format>image/svg+xml</dc:format>
        <dc:type
           rdf:resource="http://purl.org/dc/dcmitype/StillImage" />
        <dc:title></dc:title>
      </cc:Work>
    </rdf:RDF>
  </metadata>
  <g
     transform="translate(-180.41272,-153.92285)"
     id="layer1">
    <path
       style="fill:#a59b1e;fill-opacity:1;stroke-width:0.0508"
       d="m 205.11103,195.27461 c -1.36662,-0.0689 -2.5594,-0.42007 -3.50509,-1.03183 -0.19799,-0.12808 -0.56678,-0.43223 -0.81955,-0.67591 -1.53036,-1.47526 -2.31407,-3.85306 -2.48246,-7.53185 -0.0275,-0.60071 -0.0731,-1.60655 -0.10144,-2.2352 -0.13032,-2.89522 -0.53917,-4.87379 -1.32208,-6.39796 -0.8522,-1.65906 -2.08171,-2.56344 -3.98678,-2.93254 -0.64558,-0.12508 -2.25874,-0.12589 -2.8956,-0.002 -2.73457,0.5343 -4.24059,2.3618 -4.2416,5.147 -5.3e-4,0.99247 0.2065,1.80801 0.71626,2.82385 0.85147,1.69676 2.24616,3.21321 5.99056,6.51352 0.59993,0.52877 1.48052,1.35173 1.95687,1.8288 1.54101,1.54333 2.15406,2.54546 2.1559,3.52421 8e-4,0.4031 -0.0924,0.58726 -0.36874,0.72891 -0.31191,0.15988 -0.71056,0.16774 -2.50085,0.0493 -2.93034,-0.19387 -3.91918,-0.22465 -6.1214,-0.19053 -1.15951,0.018 -2.57529,0.0546 -3.14617,0.0814 -0.57089,0.0268 -1.451,0.053 -1.9558,0.0582 -0.84186,0.009 -0.93505,8e-4 -1.12584,-0.0968 -0.44841,-0.2291 -0.68201,-0.68539 -0.6799,-1.32799 0.002,-0.69428 0.29424,-1.67574 1.47549,-4.96018 2.5072,-6.97121 3.40751,-10.1681 3.85453,-13.6869 0.34288,-2.69896 0.16694,-6.65303 -0.43513,-9.779 -0.49572,-2.57386 -1.08966,-4.40566 -2.35537,-7.2644 -0.67534,-1.52533 -0.81374,-1.93773 -0.8123,-2.42049 0.001,-0.45967 0.10766,-0.71656 0.4,-0.96679 0.3923,-0.3358 0.58889,-0.36524 2.21059,-0.33105 3.67852,0.0776 5.97283,0.68921 6.90089,1.83973 0.3794,0.47033 0.4662,0.74508 0.46511,1.4722 -0.002,1.29576 -0.3313,2.29665 -1.84258,5.59926 -1.6795,3.67022 -2.12822,5.64731 -1.7595,7.75248 0.16505,0.94232 0.48851,1.61615 1.04067,2.16787 0.4364,0.43606 0.86709,0.67372 1.44353,0.79656 0.54543,0.11624 1.63456,0.0643 2.26538,-0.10792 2.95055,-0.80576 5.43074,-4.30786 5.96711,-8.42575 0.0909,-0.69774 0.10162,-1.96341 0.0234,-2.75717 -0.082,-0.83199 -0.30611,-2.10408 -0.67504,-3.83153 -0.44521,-2.08461 -0.50176,-2.42558 -0.50552,-3.048 -0.003,-0.56084 0.0721,-0.81654 0.30284,-1.02516 0.37066,-0.33519 1.28233,-0.3459 4.94561,-0.0581 2.05825,0.16169 3.33056,0.17286 5.0292,0.0441 0.68453,-0.0519 1.65608,-0.0965 2.159,-0.0991 0.83238,-0.004 0.93034,0.005 1.0922,0.0986 0.30099,0.17493 0.36732,0.3695 0.33707,0.98887 -0.0891,1.82505 -0.94891,3.47198 -2.74541,5.25892 -1.11724,1.11129 -2.16619,1.94202 -5.03386,3.98661 -0.8382,0.59762 -1.84195,1.32552 -2.23056,1.61756 -2.90481,2.18294 -4.34685,3.94464 -4.72885,5.77708 -0.0979,0.46985 -0.11009,1.47881 -0.0247,2.05434 0.31052,2.09345 1.45689,4.1807 3.24075,5.90055 1.87529,1.808 4.12606,2.9343 6.63898,3.3222 0.41001,0.0633 1.05926,0.0947 2.4384,0.11801 1.84036,0.0311 1.88385,0.0342 2.08367,0.14874 0.53314,0.30569 0.63873,0.82537 0.53653,2.64067 -0.20047,3.56082 -0.93844,5.81024 -2.38545,7.27122 -1.19838,1.20994 -2.67148,1.68445 -4.88295,1.5729 z"
       id="path4832" />
  </g>
</svg>
