<?xml version="1.0" encoding="UTF-8" standalone="no"?>
<svg
   xmlns:dc="http://purl.org/dc/elements/1.1/"
   xmlns:cc="http://creativecommons.org/ns#"
   xmlns:rdf="http://www.w3.org/1999/02/22-rdf-syntax-ns#"
   xmlns:svg="http://www.w3.org/2000/svg"
   xmlns="http://www.w3.org/2000/svg"
   id="svg4859"
   version="1.1"
   viewBox="0 0 27.217904 42.10553"
   height="159.13901"
   width="102.87082">
  <defs
     id="defs4853" />
  <metadata
     id="metadata4856">
    <rdf:RDF>
      <cc:Work
         rdf:about="">
        <dc:format>image/svg+xml</dc:format>
        <dc:type
           rdf:resource="http://purl.org/dc/dcmitype/StillImage" />
        <dc:title></dc:title>
      </cc:Work>
    </rdf:RDF>
  </metadata>
  <g
     transform="translate(-170.84347,-127.11368)"
     id="layer1">
    <path
       style="fill:#a59b1e;stroke-width:0.0508;fill-opacity:1"
       d="m 185.4005,168.94121 c -4.90647,-0.3264 -8.43497,-2.21271 -10.8205,-5.78454 -1.88975,-2.82951 -2.97843,-6.60057 -3.38044,-11.7094 -0.15073,-1.91543 -0.10969,-6.23584 0.0823,-8.6614 0.70555,-8.91589 3.30192,-13.56368 8.22588,-14.72531 1.16636,-0.27515 2.76421,-0.36414 3.7338,-0.20794 0.68337,0.11009 1.51453,0.32075 3.09741,0.78504 2.41076,0.70712 3.32275,0.90513 4.37019,0.94889 0.76744,0.0321 1.4682,-0.0626 2.14849,-0.29011 0.76664,-0.25643 1.14217,-0.50134 2.2125,-1.44299 0.3977,-0.34988 0.73638,-0.51754 0.94149,-0.46606 0.45741,0.1148 0.84043,0.93601 1.06904,2.29208 0.23477,1.39258 0.35564,4.06252 0.23623,5.21827 -0.26692,2.58341 -1.31171,4.00897 -3.33115,4.54515 -0.47152,0.1252 -0.58642,0.13516 -1.6002,0.13873 -0.96847,0.003 -1.15262,-0.01 -1.6256,-0.11513 -1.57617,-0.35157 -2.93173,-0.94525 -5.7658,-2.52517 -3.03205,-1.6903 -4.46555,-2.32498 -6.02643,-2.6682 -0.70186,-0.15434 -2.04389,-0.19075 -2.74003,-0.0743 -2.74726,0.45937 -4.2025,2.29335 -3.71065,4.67639 0.2989,1.44821 1.25649,2.68454 2.95211,3.81146 2.30952,1.53492 5.95634,2.65325 9.6774,2.96768 0.90611,0.0766 2.65027,0.0639 3.26662,-0.0237 1.25598,-0.17853 1.93151,-0.40041 3.41358,-1.12117 1.49315,-0.72614 1.79353,-0.77418 2.0532,-0.32833 0.0879,0.15097 0.10539,0.28878 0.12268,0.96798 0.0238,0.93352 -0.062,2.74943 -0.17388,3.68198 -0.37269,3.10648 -1.35744,4.49966 -3.272,4.6291 -1.00562,0.068 -1.93117,-0.32747 -2.90046,-1.23931 -0.51385,-0.4834 -0.93114,-0.97495 -1.95048,-2.29759 -1.17617,-1.52613 -1.60948,-2.04362 -2.23426,-2.66829 -1.55497,-1.55468 -2.99677,-2.20851 -4.87016,-2.20851 -1.40752,0 -2.3185,0.33849 -3.17719,1.18054 -1.00401,0.98457 -1.52925,2.446 -1.52925,4.25506 0,2.42801 0.9938,4.7118 2.86487,6.58357 1.76613,1.76679 3.94359,2.80657 6.76113,3.22856 0.70182,0.10511 3.13115,0.0897 3.9116,-0.0248 2.31776,-0.34007 4.00581,-1.05657 5.56817,-2.36345 0.57339,-0.47963 0.95632,-0.88279 1.79195,-1.88667 0.76814,-0.92278 1.05277,-1.20272 1.37581,-1.35315 0.31862,-0.14837 0.45544,-0.14904 0.71287,-0.004 0.36558,0.20669 0.64937,0.81516 0.82229,1.76303 0.12565,0.68886 0.12377,2.5906 -0.003,3.4036 -0.35267,2.2549 -1.26237,4.13663 -2.74815,5.68453 -1.75301,1.82631 -3.92638,2.91813 -6.63055,3.33092 -0.52254,0.0798 -2.29324,0.13826 -2.921,0.0965 z"
       id="path4842" />
  </g>
</svg>
