<?xml version="1.0" encoding="UTF-8" standalone="no"?>
<svg
   xmlns:dc="http://purl.org/dc/elements/1.1/"
   xmlns:cc="http://creativecommons.org/ns#"
   xmlns:rdf="http://www.w3.org/1999/02/22-rdf-syntax-ns#"
   xmlns:svg="http://www.w3.org/2000/svg"
   xmlns="http://www.w3.org/2000/svg"
   xmlns:sodipodi="http://sodipodi.sourceforge.net/DTD/sodipodi-0.dtd"
   xmlns:inkscape="http://www.inkscape.org/namespaces/inkscape"
   inkscape:version="1.0beta1 (32d4812, 2019-09-19)"
   sodipodi:docname="eckmannY.svg"
   width="116.58205"
   height="155.70459"
   viewBox="0 0 30.845668 41.19684"
   version="1.1"
   id="svg1703">
  <sodipodi:namedview
     inkscape:current-layer="svg1703"
     inkscape:window-maximized="0"
     inkscape:window-y="23"
     inkscape:window-x="103"
     inkscape:cy="77.852295"
     inkscape:cx="-20.51069"
     inkscape:zoom="1.5799149"
     showgrid="false"
     id="namedview1576"
     inkscape:window-height="829"
     inkscape:window-width="1440"
     inkscape:pageshadow="2"
     inkscape:pageopacity="0"
     guidetolerance="10"
     gridtolerance="10"
     objecttolerance="10"
     borderopacity="1"
     inkscape:document-rotation="0"
     bordercolor="#666666"
     pagecolor="#ffffff" />
  <defs
     id="defs1697" />
  <metadata
     id="metadata1700">
    <rdf:RDF>
      <cc:Work
         rdf:about="">
        <dc:format>image/svg+xml</dc:format>
        <dc:type
           rdf:resource="http://purl.org/dc/dcmitype/StillImage" />
        <dc:title />
      </cc:Work>
    </rdf:RDF>
  </metadata>
  <g
     style="fill:#a59b1e;fill-opacity:1"
     id="layer1"
     transform="translate(-250.28753,-221.50177)">
    <path
       id="path1695"
       d="m 267.31279,262.40757 c -0.77746,-0.0762 -1.3359,-0.14495 -2.2352,-0.27518 -2.73612,-0.39622 -3.98542,-0.48236 -5.84769,-0.40317 -1.38738,0.059 -1.76444,0.0938 -3.65191,0.33713 -1.6643,0.21457 -2.66434,0.24909 -3.07724,0.10623 -0.27832,-0.0963 -0.54175,-0.33124 -0.62805,-0.56013 -0.0665,-0.17643 -0.0672,-1.09846 -0.001,-1.81279 0.0271,-0.29337 0.0717,-1.14551 0.0992,-1.89363 0.0275,-0.74813 0.0848,-1.59475 0.12736,-1.88138 0.28447,-1.9158 1.11107,-2.9923 2.60957,-3.39846 0.31536,-0.0855 0.54463,-0.10575 1.22609,-0.10841 1.32333,-0.005 2.33588,0.18276 5.56256,1.03236 3.52117,0.92713 4.9216,1.19367 6.96107,1.32485 3.20104,0.2059 5.33449,-0.89766 5.89818,-3.05093 0.1081,-0.41291 0.12142,-1.33887 0.0249,-1.7272 -0.40524,-1.62964 -2.01258,-2.34383 -5.94987,-2.6437 -0.37719,-0.0287 -1.89738,-0.0733 -3.3782,-0.0991 -1.48082,-0.0258 -3.01244,-0.071 -3.4036,-0.10051 -4.55646,-0.34358 -7.57918,-1.32018 -9.25261,-2.98942 -0.9121,-0.90981 -1.33919,-1.95136 -1.33919,-3.26592 0,-0.81016 0.0984,-1.26842 0.41098,-1.91404 0.22303,-0.46063 0.31142,-0.58125 0.7465,-1.0187 1.20052,-1.20704 2.90693,-2.00041 6.28472,-2.92199 1.5718,-0.42884 2.58982,-0.77655 3.36333,-1.14874 0.99641,-0.47946 1.44062,-0.84689 1.70383,-1.40936 0.18761,-0.40091 0.20536,-0.94824 0.0455,-1.40307 -0.46145,-1.31291 -2.08131,-2.28517 -6.05246,-3.6328 -2.07278,-0.7034 -3.19549,-1.14652 -4.26152,-1.68199 -1.31359,-0.65982 -2.15972,-1.36535 -2.5228,-2.10358 -0.17586,-0.35757 -0.19854,-0.44827 -0.21597,-0.8636 -0.0177,-0.422 -0.009,-0.48008 0.10072,-0.64066 0.36889,-0.54199 0.78163,-0.5871 3.44517,-0.37649 1.99941,0.15809 4.70356,0.14408 7.1374,-0.037 1.0942,-0.0814 2.24101,-0.0819 2.55551,-0.001 0.8697,0.22344 1.40231,1.01346 1.61421,2.39435 0.10253,0.66814 0.10055,2.41675 -0.004,3.32761 -0.21999,1.92085 -0.83671,4.12319 -1.87067,6.6802 -1.20877,2.98931 -1.47994,3.68023 -1.72708,4.4004 -0.69692,2.03086 -0.92564,3.6137 -0.74048,5.1246 0.21398,1.74611 1.0768,2.85323 2.39719,3.07595 1.42127,0.23973 2.96486,-0.40114 4.41101,-1.83135 1.61268,-1.59492 2.60274,-3.61481 3.02535,-6.1722 0.11536,-0.69811 0.13009,-3.06186 0.025,-4.0132 -0.30857,-2.79351 -1.11207,-5.54949 -2.54373,-8.7249 -0.1984,-0.44006 -0.51776,-1.14941 -0.70968,-1.57634 -0.47071,-1.0471 -0.61625,-1.49461 -0.61625,-1.89478 0,-0.28572 0.0174,-0.34242 0.15169,-0.49541 0.22768,-0.25931 0.49062,-0.31529 1.42311,-0.30296 0.43307,0.006 1.33604,0.04 2.0066,0.0762 0.67056,0.0362 2.25933,0.0652 3.5306,0.0644 1.89227,-10e-4 2.6093,-0.0226 3.95429,-0.11826 1.89121,-0.13458 1.99272,-0.12594 2.36454,0.20136 0.28655,0.25223 0.41229,0.55884 0.37126,0.90528 -0.0399,0.33712 -0.23713,0.7841 -0.81006,1.83607 -1.25853,2.31081 -2.01071,3.98562 -2.65179,5.90444 -1.32129,3.95482 -2.12198,9.10632 -2.41766,15.55487 -0.0307,0.67056 -0.0639,2.53365 -0.0737,4.1402 -0.0174,2.86193 -0.0514,3.67432 -0.20497,4.9022 -0.47317,3.78219 -1.78649,6.04002 -3.97367,6.83144 -0.66961,0.24229 -1.16278,0.30707 -2.26724,0.29783 -0.53418,-0.004 -1.05125,-0.016 -1.14904,-0.0256 z"
       style="fill:#a59b1e;stroke-width:0.0508;fill-opacity:1" />
  </g>
</svg>
