<?xml version="1.0" encoding="UTF-8" standalone="no"?>
<svg
   xmlns:dc="http://purl.org/dc/elements/1.1/"
   xmlns:cc="http://creativecommons.org/ns#"
   xmlns:rdf="http://www.w3.org/1999/02/22-rdf-syntax-ns#"
   xmlns:svg="http://www.w3.org/2000/svg"
   xmlns="http://www.w3.org/2000/svg"
   width="126.2915"
   height="156.867"
   viewBox="0 0 33.414627 41.504396"
   version="1.1"
   id="svg4859">
  <defs
     id="defs4853" />
  <metadata
     id="metadata4856">
    <rdf:RDF>
      <cc:Work
         rdf:about="">
        <dc:format>image/svg+xml</dc:format>
        <dc:type
           rdf:resource="http://purl.org/dc/dcmitype/StillImage" />
        <dc:title></dc:title>
      </cc:Work>
    </rdf:RDF>
  </metadata>
  <path
     style="fill:#a59b1e;fill-opacity:1;stroke-width:0.0890691"
     d="m 27.577997,41.197023 c -4.381206,-0.232062 -6.86327,-2.056091 -7.836136,-5.75863 -0.249794,-0.950664 -0.393579,-2.094373 -0.489088,-3.890187 -0.105393,-1.981732 -0.185315,-2.581506 -0.457866,-3.435563 -0.655423,-2.053828 -2.127222,-3.105424 -4.734526,-3.382846 -1.199421,-0.127625 -1.535319,-0.315598 -1.63235,-0.913483 -0.08526,-0.525392 0.195624,-0.740824 1.438723,-1.103498 2.193276,-0.639883 3.497568,-1.35507 4.771526,-2.616396 2.012624,-1.99269 2.843671,-4.362025 2.842934,-8.105291 -9.29e-4,-4.0118878 -1.077087,-6.2644088 -3.370242,-7.0534548 -0.852071,-0.29319 -2.29918,-0.290839 -3.160058,0.0051 -3.23761,1.113099 -5.7970635,5.9543868 -6.6000585,12.4842168 -0.201268,1.636669 -0.334399,4.351882 -0.268446,5.47508 0.172914,2.945131 1.048719,5.560897 2.6690215,7.971688 0.92547,1.376972 1.560533,2.12915 4.258641,5.044008 1.759518,1.900879 2.463805,3.098433 2.463805,4.189431 0,0.321424 -0.05011,0.449841 -0.255795,0.655521 -0.140688,0.140687 -0.369353,0.284302 -0.508149,0.319138 -0.138793,0.03484 -1.536758,-0.0095 -3.106573,-0.09849 -2.456453,-0.139267 -3.43138,-0.151119 -6.9959175,-0.08498 -5.86355305,0.108759 -5.467443,0.11586 -5.76126305,-0.103166 -0.38937,-0.290232 -0.57671,-0.684247 -0.58155,-1.223152 -0.005,-0.643284 0.39448,-1.474985 2.21430005,-4.601131 2.753024,-4.729219 3.901183,-7.180016 4.569165,-9.75307 0.393801,-1.516895 0.485444,-2.502705 0.417887,-4.495001 -0.20838,-6.144753 -1.35468,-10.621297 -4.149422,-16.2042208 -1.14932,-2.29596 -1.32723,-2.916546 -1.03598,-3.61360001 0.1492,-0.3572551 0.48214,-0.5505258 1.08418,-0.6294865 0.24035,-0.031499 1.819802,0.00714 3.509891,0.085924 3.8532565,0.179618 6.6268775,0.204975 11.7125905,0.1070828 3.589246,-0.069085 4.08962,-0.061531 4.788018,0.072295 1.88899,0.3619587 3.33801,1.09545171 4.5624,2.30946471 2.498254,2.477077 3.234356,6.353918 1.828409,9.6297088 -0.312044,0.727038 -1.098594,1.827969 -1.7964,2.514385 -1.34539,1.323448 -2.394613,2.026639 -5.552454,3.721303 -1.077737,0.578361 -2.228917,1.228691 -2.55819,1.445161 -1.320826,0.868373 -1.946889,1.671484 -1.953346,2.505723 -0.0086,1.1185 0.914596,1.715255 3.130964,2.023693 3.74598,0.521314 5.323992,1.157115 6.459972,2.602823 0.826232,1.051498 1.263367,2.162655 1.688974,4.293188 0.586909,2.937977 1.441282,4.66855 2.999471,6.075504 0.719647,0.6498 0.964985,1.06515 0.964985,1.633644 0,1.110501 -1.066425,1.780222 -2.983816,1.873852 -0.48988,0.02393 -1.010934,0.05379 -1.157898,0.0664 -0.146964,0.01262 -0.790613,-0.0049 -1.430333,-0.0387 z"
     id="path1989" />
</svg>
