<?xml version="1.0" encoding="UTF-8" standalone="no"?>
<svg
   xmlns:dc="http://purl.org/dc/elements/1.1/"
   xmlns:cc="http://creativecommons.org/ns#"
   xmlns:rdf="http://www.w3.org/1999/02/22-rdf-syntax-ns#"
   xmlns:svg="http://www.w3.org/2000/svg"
   xmlns="http://www.w3.org/2000/svg"
   xmlns:sodipodi="http://sodipodi.sourceforge.net/DTD/sodipodi-0.dtd"
   xmlns:inkscape="http://www.inkscape.org/namespaces/inkscape"
   width="122.90918"
   height="158.5229"
   viewBox="0 0 32.51972 41.942519"
   version="1.1"
   id="svg1703"
   sodipodi:docname="eckmannN.svg"
   inkscape:version="1.0beta1 (32d4812, 2019-09-19)">
  <sodipodi:namedview
     pagecolor="#ffffff"
     bordercolor="#666666"
     inkscape:document-rotation="0"
     borderopacity="1"
     objecttolerance="10"
     gridtolerance="10"
     guidetolerance="10"
     inkscape:pageopacity="0"
     inkscape:pageshadow="2"
     inkscape:window-width="1317"
     inkscape:window-height="663"
     id="namedview959"
     showgrid="false"
     inkscape:zoom="1.1722705"
     inkscape:cx="-71.510002"
     inkscape:cy="111.7239"
     inkscape:window-x="0"
     inkscape:window-y="23"
     inkscape:window-maximized="0"
     inkscape:current-layer="svg1703" />
  <defs
     id="defs1697" />
  <metadata
     id="metadata1700">
    <rdf:RDF>
      <cc:Work
         rdf:about="">
        <dc:format>image/svg+xml</dc:format>
        <dc:type
           rdf:resource="http://purl.org/dc/dcmitype/StillImage" />
        <dc:title />
      </cc:Work>
    </rdf:RDF>
  </metadata>
  <g
     id="layer1"
     transform="translate(-174.99608,-87.129931)"
     style="fill:#a59b1e;fill-opacity:1"
     mask="none">
    <path
       id="path1685"
       d="m 179.48195,128.76039 c -2.40447,-0.10095 -3.43076,-0.36365 -3.73741,-0.95664 -0.19205,-0.37138 -0.13122,-1.11855 0.16373,-2.01109 0.25412,-0.76895 0.83632,-1.91379 2.06187,-4.05441 1.93901,-3.38682 2.72301,-5.13202 3.25329,-7.24199 0.32132,-1.27852 0.40481,-1.98821 0.40715,-3.46099 0.003,-1.78973 -0.17577,-3.19883 -0.65521,-5.16897 -0.62713,-2.57707 -1.42946,-4.78746 -3.37898,-9.309035 -1.07686,-2.497582 -1.47318,-3.466938 -1.78169,-4.357798 -0.69594,-2.009632 -0.73426,-3.181522 -0.12616,-3.857874 0.15149,-0.168492 0.3322,-0.299297 0.54641,-0.39551 0.28836,-0.129519 0.37291,-0.143404 0.85347,-0.140184 0.29337,0.0019 0.95631,0.05426 1.4732,0.116205 1.11626,0.133781 2.05592,0.119068 3.429,-0.05367 0.47498,-0.05976 1.13792,-0.112318 1.4732,-0.116808 0.5618,-0.0075 0.62662,0.0016 0.82666,0.116144 0.16034,0.09183 0.25186,0.195435 0.35024,0.396529 0.12753,0.260659 0.1319,0.297452 0.10297,0.866291 -0.0187,0.367889 -0.0907,0.874527 -0.18899,1.330676 -0.65213,3.025209 -0.74124,3.912116 -0.45769,4.555099 0.14066,0.318963 0.46291,0.644615 0.76757,0.775674 0.37362,0.160726 0.93814,0.229012 1.28976,0.156016 0.88378,-0.183472 1.65886,-0.844558 3.8388,-3.274205 1.28906,-1.436727 2.08149,-2.24627 2.81788,-2.878746 1.40541,-1.207093 2.59191,-1.875891 3.979,-2.242881 0.56743,-0.150125 0.63681,-0.156924 1.609,-0.157679 0.87735,-7.93e-4 1.06821,0.01373 1.39856,0.105641 1.11008,0.308819 1.81389,0.708395 2.57075,1.459489 1.06746,1.059331 1.67865,2.369341 1.9265,4.12923 0.0906,0.643195 0.10224,2.237015 0.0218,2.987697 -0.3679,3.435046 -1.75563,6.348919 -4.59579,9.650069 -0.3125,0.36322 -0.84997,0.96901 -1.19438,1.3462 -1.42875,1.56475 -2.04097,2.25468 -2.43111,2.73971 -1.24825,1.55183 -1.78576,2.74521 -1.78576,3.96474 0,2.03268 1.22323,3.32857 3.60499,3.81915 0.6422,0.13226 2.3547,0.18383 3.15829,0.0951 2.09872,-0.23176 3.26196,-0.94482 4.47276,-2.74179 0.61821,-0.9175 0.68637,-0.95619 1.03799,-0.58922 0.82973,0.86596 0.89665,4.38337 0.14114,7.41891 -0.77412,3.11028 -2.46318,5.43479 -4.55887,6.27394 -1.73405,0.69435 -4.03222,0.54441 -5.88008,-0.38364 -2.10182,-1.0556 -3.3876,-2.78863 -3.84251,-5.1791 -0.11709,-0.61532 -0.11455,-2.55254 0.005,-3.5306 0.18977,-1.5574 0.61876,-3.44035 1.27889,-5.6134 0.87009,-2.8642 1.06198,-3.51924 1.29473,-4.4196 0.71493,-2.76561 0.96854,-4.65479 0.96842,-7.2136 0,-2.451767 -0.23896,-3.904475 -0.84393,-5.13329 -0.65151,-1.323394 -1.74274,-2.030545 -3.4118,-2.210973 -2.32036,-0.250835 -4.31153,0.939419 -6.11871,3.657556 -0.4908,0.738195 -1.26195,2.232757 -1.61391,3.127907 -1.15578,2.93954 -1.83321,6.73838 -1.83321,10.28024 0,2.49449 0.70639,4.69668 2.22642,6.94095 0.89621,1.32323 1.59581,2.11859 4.02158,4.572 1.9539,1.97618 2.39677,2.4892 2.72884,3.16111 0.2097,0.42431 0.27935,0.96936 0.16727,1.30898 -0.23059,0.69868 -1.24428,1.06051 -3.4799,1.2421 -1.75001,0.14216 -6.10761,0.19451 -8.35067,0.10034 z"
       style="fill:#a59b1e;stroke-width:0.0508;fill-opacity:1" />
  </g>
</svg>
