<?xml version="1.0" encoding="UTF-8" standalone="no"?>
<svg
   xmlns:dc="http://purl.org/dc/elements/1.1/"
   xmlns:cc="http://creativecommons.org/ns#"
   xmlns:rdf="http://www.w3.org/1999/02/22-rdf-syntax-ns#"
   xmlns:svg="http://www.w3.org/2000/svg"
   xmlns="http://www.w3.org/2000/svg"
   xmlns:sodipodi="http://sodipodi.sourceforge.net/DTD/sodipodi-0.dtd"
   xmlns:inkscape="http://www.inkscape.org/namespaces/inkscape"
   inkscape:version="1.0beta1 (32d4812, 2019-09-19)"
   sodipodi:docname="eckmannC.svg"
   width="107.3887"
   height="158.0408"
   viewBox="0 0 28.413262 41.814963"
   version="1.1"
   id="svg1703">
  <sodipodi:namedview
     inkscape:current-layer="svg1703"
     inkscape:window-maximized="1"
     inkscape:window-y="23"
     inkscape:window-x="0"
     inkscape:cy="79.020401"
     inkscape:cx="-26.289713"
     inkscape:zoom="1.5565601"
     showgrid="false"
     id="namedview2193"
     inkscape:window-height="829"
     inkscape:window-width="1440"
     inkscape:pageshadow="2"
     inkscape:pageopacity="0"
     guidetolerance="10"
     gridtolerance="10"
     objecttolerance="10"
     borderopacity="1"
     inkscape:document-rotation="0"
     bordercolor="#666666"
     pagecolor="#ffffff" />
  <defs
     id="defs1697" />
  <metadata
     id="metadata1700">
    <rdf:RDF>
      <cc:Work
         rdf:about="">
        <dc:format>image/svg+xml</dc:format>
        <dc:type
           rdf:resource="http://purl.org/dc/dcmitype/StillImage" />
        <dc:title />
      </cc:Work>
    </rdf:RDF>
  </metadata>
  <g
     style="fill:#a59b1e;fill-opacity:1"
     id="layer1"
     transform="translate(-91.626709,-127.25918)">
    <path
       id="path1659"
       d="m 103.42149,168.73352 c -6.297308,-0.68399 -10.087498,-4.96344 -11.224278,-12.67316 -0.26307,-1.78416 -0.30874,-2.60263 -0.30579,-5.48114 0.003,-2.86349 0.0496,-3.76885 0.30627,-5.9436 1.06293,-9.00514 4.47287,-14.92144 9.586228,-16.63222 0.95047,-0.318 1.66245,-0.43987 2.75397,-0.47141 1.18516,-0.0342 1.52589,0.017 3.77733,0.56808 2.33907,0.57251 2.45927,0.5928 3.68363,0.62179 1.96813,0.0466 3.16932,-0.1319 5.11204,-0.75963 0.8146,-0.26322 1.19206,-0.36015 1.48511,-0.38137 0.68165,-0.0493 1.04287,0.17524 1.15566,0.71854 0.13106,0.63133 -0.27011,1.87156 -1.47197,4.55062 -2.02142,4.50592 -2.40371,5.41657 -3.03895,7.239 -2.30774,6.62064 -4.373,10.43405 -6.52701,12.05187 -0.41015,0.30805 -1.1097,0.67576 -1.53424,0.80646 -0.42643,0.13128 -1.68393,0.13417 -2.159,0.005 -1.32044,-0.35913 -2.07047,-1.19869 -2.43768,-2.72869 -0.32913,-1.37131 -0.22092,-4.01676 0.22733,-5.55754 0.358,-1.23057 0.96626,-2.0584 1.73411,-2.36008 0.70683,-0.27771 1.44589,-0.1831 3.32297,0.42537 1.16015,0.37607 1.71508,0.48201 2.52065,0.48119 1.31668,-0.001 2.26879,-0.34754 3.0877,-1.12271 0.70486,-0.6672 1.10463,-1.36689 1.38779,-2.42888 0.11172,-0.41901 0.13001,-0.59537 0.13211,-1.27375 0.002,-0.66473 -0.0151,-0.84921 -0.11014,-1.18411 -0.26751,-0.94268 -0.67419,-1.40734 -1.39289,-1.59146 -0.54997,-0.1409 -1.4071,10e-4 -2.96015,0.48995 -0.9165,0.28856 -1.67201,0.4844 -2.3876,0.61889 -0.51902,0.0975 -0.77943,0.11451 -1.7526,0.11418 -1.0772,-5.3e-4 -1.17137,-0.008 -1.6358,-0.13476 -0.70406,-0.19197 -1.44569,-0.51911 -2.5806,-1.13831 -2.366688,-1.29128 -3.370338,-1.6448 -4.669578,-1.6448 -0.83537,0 -1.35971,0.19909 -1.86541,0.70825 -0.33629,0.3386 -0.71304,1.06604 -0.90922,1.75555 -0.65326,2.29599 -0.61895,6.33345 0.0848,9.9822 1.09959,5.70093 3.67736,10.13668 7.047278,12.12679 0.83981,0.49595 1.82219,0.86658 2.8267,1.06645 0.63542,0.12642 2.66191,0.12459 3.40142,-0.003 2.90298,-0.50117 4.88671,-1.87041 6.30877,-4.35457 0.74643,-1.30392 1.37142,-3.21085 1.67021,-5.09608 0.21372,-1.34845 0.28724,-1.50452 0.7086,-1.50412 0.69287,5.2e-4 1.11801,0.99096 1.22119,2.84461 0.0384,0.68991 -0.0478,2.86703 -0.15488,3.9116 -0.64286,6.27137 -2.92351,10.34558 -6.85611,12.24792 -1.35513,0.65553 -2.67026,1.00949 -4.318,1.16221 -0.76986,0.0713 -2.45564,0.0553 -3.25,-0.031 z"
       style="fill:#a59b1e;stroke-width:0.0508;fill-opacity:1" />
  </g>
</svg>
