<?xml version="1.0" encoding="UTF-8" standalone="no"?>
<svg
   xmlns:dc="http://purl.org/dc/elements/1.1/"
   xmlns:cc="http://creativecommons.org/ns#"
   xmlns:rdf="http://www.w3.org/1999/02/22-rdf-syntax-ns#"
   xmlns:svg="http://www.w3.org/2000/svg"
   xmlns="http://www.w3.org/2000/svg"
   id="svg4859"
   version="1.1"
   viewBox="0 0 27.545819 41.504388"
   height="156.86697"
   width="104.11018">
  <defs
     id="defs4853" />
  <metadata
     id="metadata4856">
    <rdf:RDF>
      <cc:Work
         rdf:about="">
        <dc:format>image/svg+xml</dc:format>
        <dc:type
           rdf:resource="http://purl.org/dc/dcmitype/StillImage" />
        <dc:title></dc:title>
      </cc:Work>
    </rdf:RDF>
  </metadata>
  <g
     transform="translate(-193.8541,-183.06352)"
     id="layer1">
    <path
       id="path4818"
       style="fill:#a59b1e;fill-opacity:1;stroke-width:0.0508"
       d="m 202.1023,183.32818 c -1.64872,0 -3.37412,1.21563 -4.79402,3.37809 -0.42786,0.65163 -1.12925,2.0285 -1.4366,2.81947 -0.92282,2.3748 -1.48665,5.17306 -1.69912,8.43256 -0.071,1.09006 -0.072,3.64134 -0.002,4.547 0.19699,2.53198 0.5626,4.51615 1.77405,9.63353 0.74726,3.15656 0.89299,4.06424 0.89193,5.55573 -7.9e-4,0.99474 -0.0198,1.24621 -0.17001,2.28616 -0.2023,1.40076 -0.19682,1.70117 0.0393,2.18075 0.63021,1.28013 2.76023,1.91616 7.06676,2.11098 1.43571,0.065 5.19429,0.0211 6.29315,-0.0734 4.76298,-0.40968 7.37657,-1.59182 7.67964,-3.47369 0.0659,-0.40946 -0.0125,-1.42092 -0.21136,-2.72593 -0.20255,-1.32936 -0.2385,-2.15957 -0.12454,-2.89595 0.17334,-1.12002 0.41371,-2.00125 1.39888,-5.13043 0.82208,-2.61117 1.14096,-3.69334 1.46658,-4.97851 0.67183,-2.65161 0.91273,-4.51628 0.85111,-6.58358 -0.11791,-3.95548 -0.81182,-7.07868 -2.16628,-9.74876 -0.66864,-1.3181 -1.31451,-2.22899 -2.28048,-3.21737 -0.88494,-0.90547 -1.80389,-1.55645 -2.72128,-1.92702 -0.39517,-0.15968 -0.42684,-0.16407 -1.14308,-0.16071 -0.82791,0.004 -1.16312,0.0623 -2.74299,0.47956 -2.36387,0.62438 -2.54737,0.62368 -5.28339,-0.0259 -1.59921,-0.37965 -2.17222,-0.48266 -2.68666,-0.48266 z m -0.93947,5.749 c 2.56223,0.004 5.01334,0.93571 7.33443,2.7864 1.13281,0.90323 2.7076,2.6126 3.74344,4.06331 2.69178,3.76985 4.80183,9.02152 5.35678,13.33304 0.13829,1.07434 0.11391,2.50887 -0.0537,3.17655 -0.30477,1.21371 -0.79701,2.07271 -1.66088,2.89647 -1.07043,1.02073 -2.549,1.63643 -4.38836,1.82728 -0.56548,0.0587 -2.00351,0.0562 -2.68924,-0.005 -1.88377,-0.16721 -3.26331,-0.77474 -4.30879,-1.89653 -0.80902,-0.86808 -1.40877,-1.97 -1.99781,-3.67057 -0.56451,-1.62978 -1.25656,-2.84004 -3.21324,-5.61981 -1.47055,-2.08917 -1.96468,-2.87571 -2.574,-4.09846 -0.84367,-1.69303 -1.30159,-3.28921 -1.47536,-5.14181 -0.0793,-0.84569 -0.0372,-2.945 0.0718,-3.57187 0.22222,-1.27718 0.63546,-2.16388 1.29656,-2.78226 0.86605,-0.81009 2.07502,-1.19415 4.0442,-1.2852 0.17179,-0.008 0.34336,-0.0122 0.51418,-0.0119 z" />
  </g>
</svg>
