<?xml version="1.0" encoding="UTF-8" standalone="no"?>
<svg
   xmlns:dc="http://purl.org/dc/elements/1.1/"
   xmlns:cc="http://creativecommons.org/ns#"
   xmlns:rdf="http://www.w3.org/1999/02/22-rdf-syntax-ns#"
   xmlns:svg="http://www.w3.org/2000/svg"
   xmlns="http://www.w3.org/2000/svg"
   width="159.27609"
   height="156.867"
   viewBox="0 0 42.141799 41.504396"
   version="1.1"
   id="svg4859">
  <defs
     id="defs4853" />
  <metadata
     id="metadata4856">
    <rdf:RDF>
      <cc:Work
         rdf:about="">
        <dc:format>image/svg+xml</dc:format>
        <dc:type
           rdf:resource="http://purl.org/dc/dcmitype/StillImage" />
        <dc:title></dc:title>
      </cc:Work>
    </rdf:RDF>
  </metadata>
  <path
     style="fill:#a59b1e;fill-opacity:1;stroke-width:0.0887004"
     d="m 8.4758962,41.151984 c -0.36446,-0.147422 -0.63624,-0.591864 -0.74948,-1.225582 -0.0882,-0.49386 -0.0812,-1.286679 0.0371,-4.194617 0.2602,-6.394269 0.14684,-9.240435 -0.53121,-13.342706 -0.83498,-5.051329 -2.20044,-9.250598 -5.20941,-16.0207008 -1.36747003,-3.076788 -1.75308003,-4.127509 -1.75822003,-4.790795 -0.009,-1.07327495 0.63326,-1.25422395 3.29559003,-0.92945595 3.25442,0.39699895 5.74504,0.40139695 8.9143898,0.01575 1.02449,-0.124656 2.30295,-0.252528 2.84102,-0.284151 1.21534,-0.07144 1.48795,0.02961 1.6441,0.609534 0.1773,0.65838795 0.0604,0.79275095 -2.31196,2.65655095 -4.40318,3.459354 -6.5242798,6.6255858 -7.2870598,10.8775208 -0.27456,1.530554 -0.27484,3.945442 -9.2e-4,5.323962 0.5719,2.8747 1.87716,4.914123 3.7419098,5.846604 0.91469,0.457399 1.56586,0.631261 2.6144,0.698055 2.04662,0.130362 3.69956,-0.76914 4.50328,-2.450611 0.62855,-1.31502 0.82095,-2.607676 0.7459,-5.011575 -0.0917,-2.936612 -0.40646,-4.504767 -1.6283,-8.111558 -0.69027,-2.0376718 -0.76828,-2.3354468 -0.80172,-3.0601658 -0.0319,-0.693532 -0.0122,-0.841597 0.14283,-1.087537 0.40718,-0.6444 1.40422,-0.897764 3.82358,-0.971635 3.47551,-0.106112 5.1147,0.310733 5.3801,1.368158 0.066,0.263053 -0.0448,1.795459 -0.31651,4.3763838 -0.52836,5.018861 -0.45225,8.903849 0.2199,11.223268 0.65544,2.26183 2.01689,3.648712 4.1663,4.244192 0.31008,0.08591 1.04456,0.167309 1.77471,0.19673 1.40464,0.05657 1.88319,-0.03382 2.83395,-0.535288 0.63408,-0.334457 1.69297,-1.313923 2.2221,-2.055422 1.73834,-2.436069 2.58778,-6.629965 1.89351,-9.348768 -0.73458,-2.876653 -2.93482,-5.2868568 -7.17153,-7.8558898 -0.4501,-0.272929 -1.8425,-1.058081 -3.09422,-1.744793 -2.66463,-1.461853 -3.80511,-2.193719 -4.38564,-2.814364 -0.48409,-0.517525 -0.59555,-0.759188 -0.59555,-1.291109 0,-0.52733295 0.23995,-0.80951595 0.78845,-0.92714995 0.46481,-0.09968 0.66707,-0.07717 2.75312,0.306427 0.74664,0.137296 1.5296,0.22040195 2.09848,0.22274495 1.01275,0.0042 0.96993,0.0098 3.18564,-0.42322595 3.62441,-0.708417 5.53486,-0.439386 7.1299,1.00403295 1.69518,1.534066 2.49344,3.745848 2.49279,6.907017 -9e-4,3.2870868 -0.55947,5.8166378 -2.56574,11.6139048 -2.38613,6.894951 -3.1763,10.226259 -3.86158,16.280266 -0.30818,2.722412 -0.52429,3.533731 -1.12296,4.215559 -0.53749,0.612177 -1.24144,0.724941 -2.5062,0.401471 -2.3854,-0.610082 -4.31828,-2.764866 -5.85034,-6.521969 -0.86373,-2.118148 -1.39079,-3.836284 -2.53058,-8.249142 -0.79232,-3.067543 -1.11946,-4.131783 -1.50414,-4.893188 -0.43002,-0.851187 -0.77251,-1.045202 -1.26378,-0.715919 -0.76697,0.514056 -1.39978,1.910076 -2.96484,6.540461 -1.85375,5.484545 -2.41846,6.974171 -3.41294,9.003096 -1.39396,2.843854 -2.85814,4.483126 -4.3617498,4.883344 -0.52245,0.139057 -1.17106,0.157897 -1.45681,0.04228 z"
     id="path1997-7" />
</svg>
