<?xml version="1.0" encoding="iso-8859-1"?>
<!-- Generator: Adobe Illustrator 16.0.0, SVG Export Plug-In . SVG Version: 6.00 Build 0)  -->
<!DOCTYPE svg PUBLIC "-//W3C//DTD SVG 1.1//EN" "http://www.w3.org/Graphics/SVG/1.1/DTD/svg11.dtd">
<svg version="1.1" id="Capa_1" xmlns="http://www.w3.org/2000/svg" xmlns:xlink="http://www.w3.org/1999/xlink" x="0px" y="0px"
	 width="111.646px" height="111.645px" viewBox="0 0 111.646 111.645" style="enable-background:new 0 0 111.646 111.645;"
	 xml:space="preserve">
<g>
	<g>
		<path d="M111.525,36.634c-0.432-3.91-1.869-7.242-4.17-9.849c-3.596-4.127-8.845-6.083-15.746-5.938
			c-6.688,0.146-13.734,2.318-21.215,6.445c6.904-1.955,11.865-1.303,14.813,2.1c3.738,4.417,2.804,11.441-2.876,21.072
			c-1.94,3.259-4.313,6.589-6.975,9.92c-2.157,2.607-3.739,4.345-4.746,5.141c1.438-8.254,2.373-16.292,2.732-24.257
			c0.286-6.155-1.151-11.007-4.172-14.482c-4.098-4.634-10.138-6.517-18.12-5.793c-7.836,0.796-15.891,3.91-24.087,9.559
			c3.955,0.289,7.334,1.955,10.065,4.851c2.806,2.97,4.243,6.445,4.388,10.5c0.071,3.042-0.36,7.168-1.224,12.382
			c-1.149,6.083-1.725,10.139-1.868,12.094c-0.433,6.082,1.007,10.86,4.241,14.481c2.301,2.607,5.394,4.417,9.204,5.288
			c3.667,0.867,7.838,0.867,12.438,0c9.635-1.884,18.981-6.809,27.971-14.846c8.916-8.039,14.885-16.8,17.832-26.286
			C111.455,44.526,111.886,40.398,111.525,36.634z"/>
		<path d="M26.536,82.253c-2.805-3.187-3.02-7.82-0.721-13.902c1.727-4.49,4.604-9.486,8.773-14.845
			c2.085-2.751,2.876-5.721,2.301-8.907c-0.432-2.607-1.582-4.779-3.452-6.662c-2.013-1.883-4.458-2.969-7.478-3.042
			c-3.164-0.146-5.824,0.868-8.053,2.896C9.493,45.758,4.028,54.229,1.368,63.354c-1.293,4.344-1.653,8.327-1.15,12.02
			c0.432,3.767,1.798,6.952,4.099,9.486c3.595,4.127,8.844,6.083,15.746,5.938c6.688-0.146,13.734-2.318,21.212-6.445
			c-2.947,0.796-5.393,1.231-7.334,1.159C30.777,85.439,28.333,84.353,26.536,82.253z"/>
	</g>
</g>
<g>
</g>
<g>
</g>
<g>
</g>
<g>
</g>
<g>
</g>
<g>
</g>
<g>
</g>
<g>
</g>
<g>
</g>
<g>
</g>
<g>
</g>
<g>
</g>
<g>
</g>
<g>
</g>
<g>
</g>
</svg>
