<?xml version="1.0" encoding="UTF-8" standalone="no"?>
<svg
   xmlns:dc="http://purl.org/dc/elements/1.1/"
   xmlns:cc="http://creativecommons.org/ns#"
   xmlns:rdf="http://www.w3.org/1999/02/22-rdf-syntax-ns#"
   xmlns:svg="http://www.w3.org/2000/svg"
   xmlns="http://www.w3.org/2000/svg"
   xmlns:sodipodi="http://sodipodi.sourceforge.net/DTD/sodipodi-0.dtd"
   xmlns:inkscape="http://www.inkscape.org/namespaces/inkscape"
   inkscape:version="1.0beta1 (32d4812, 2019-09-19)"
   sodipodi:docname="play-button-arrowhead.svg"
   xml:space="preserve"
   viewBox="0 0 295.00001 172.87696"
   height="172.87695"
   width="295"
   y="0px"
   x="0px"
   id="Capa_1"
   version="1.1"><metadata
   id="metadata872">
  <rdf:RDF>
    <cc:Work
       rdf:about="">
      <dc:format>image/svg+xml</dc:format>
      <dc:type
         rdf:resource="http://purl.org/dc/dcmitype/StillImage" />
      <dc:title></dc:title>
    </cc:Work>
  </rdf:RDF>
</metadata>
<defs
   id="defs870" />
<sodipodi:namedview
   inkscape:current-layer="Capa_1"
   inkscape:window-maximized="0"
   inkscape:window-y="23"
   inkscape:window-x="0"
   inkscape:cy="176.14363"
   inkscape:cx="154"
   inkscape:zoom="1"
   fit-margin-bottom="1"
   fit-margin-right="1"
   fit-margin-left="1"
   fit-margin-top="1"
   lock-margins="true"
   showgrid="false"
   id="namedview868"
   inkscape:window-height="829"
   inkscape:window-width="1440"
   inkscape:pageshadow="2"
   inkscape:pageopacity="0"
   guidetolerance="10"
   gridtolerance="10"
   objecttolerance="10"
   borderopacity="1"
   inkscape:document-rotation="0"
   bordercolor="#666666"
   pagecolor="#ffffff" />

<path
   inkscape:connector-curvature="0"
   d="M 31.69922,1 C 14.75226,1.0197 1.01974,14.75421 1,31.70117 V 142.9668 c 0.0148,12.99726 8.21285,24.57774 20.4668,28.91015 H 273.5332 C 285.78715,167.54454 293.98515,155.96406 294,142.9668 V 31.70117 C 293.9803,14.75421 280.24774,1.01975 263.30078,1 Z m 19.04297,39.34375 c 2.09597,-0.11063 4.49788,0.52195 7.05078,1.98633 l 60.72461,34.82422 c 8.17203,4.68656 8.17203,12.28108 0,16.96875 L 57.79297,128.94922 C 49.6237,133.6308 43,129.79704 43,120.37305 V 50.89648 c 0,-6.47253 3.13104,-10.30934 7.74219,-10.55273 z m 175.36914,0.65234 h 28.17773 c 0.95326,0 1.78126,0.34767 2.47852,1.04492 0.69667,0.69687 1.04668,1.52196 1.04687,2.47657 v 28.17968 c 0,0.95403 -0.34962,1.77951 -1.04687,2.47657 -0.69745,0.69725 -1.52254,1.04687 -2.47656,1.04687 -0.95403,0 -1.77989,-0.34962 -2.47657,-1.04687 l -9.6875,-9.68555 -35.88476,35.88281 c -0.36665,0.36704 -0.78871,0.55078 -1.26563,0.55078 -0.47691,0 -0.89878,-0.18393 -1.26562,-0.55078 l -6.27344,-6.27344 c -0.36684,-0.36684 -0.55078,-0.78774 -0.55078,-1.26562 0,-0.47615 0.18336,-0.89878 0.55078,-1.26562 l 35.88281,-35.88477 -9.68554,-9.68555 c -0.69726,-0.69725 -1.04688,-1.52449 -1.04688,-2.47851 0,-0.95403 0.34962,-1.7797 1.04688,-2.47657 0.69667,-0.69725 1.52273,-1.04492 2.47656,-1.04492 z m -51.07422,7.04492 h 38.74609 c 0.51451,0 0.9358,0.16393 1.26563,0.49414 0.32983,0.32964 0.49609,0.75247 0.49609,1.26563 v 3.52344 c 0,0.51412 -0.16626,0.93541 -0.49609,1.26562 -0.32983,0.32983 -0.75112,0.4961 -1.26563,0.4961 h -38.74609 c -2.42159,0 -4.49598,0.86121 -6.2207,2.58593 -1.72454,1.72454 -2.58594,3.79716 -2.58594,6.21875 v 45.79102 c 0,2.42198 0.8616,4.49422 2.58594,6.21875 1.72472,1.72434 3.79911,2.58594 6.2207,2.58594 h 45.79101 c 2.42179,0 4.49637,-0.8616 6.22071,-2.58594 1.72434,-1.72473 2.58594,-3.79696 2.58594,-6.21875 V 92.07031 c 0,-0.51393 0.16491,-0.93637 0.49609,-1.26562 0.32848,-0.33118 0.74916,-0.4961 1.26367,-0.4961 h 3.52344 c 0.51316,0 0.93541,0.16492 1.26562,0.4961 0.33118,0.32983 0.4961,0.75111 0.4961,1.26562 v 17.61133 c 0,4.36588 -1.54967,8.10003 -4.65039,11.19922 -3.10054,3.10053 -6.83548,4.65234 -11.20118,4.65234 h -45.79101 c -4.36589,0 -8.10025,-1.55181 -11.20117,-4.65234 -3.09996,-3.09919 -4.65039,-6.83353 -4.65039,-11.19922 V 63.89062 c 0,-4.36588 1.55062,-8.09907 4.65039,-11.19921 3.10092,-3.10035 6.83528,-4.6504 11.20117,-4.6504 z"
   style="opacity:1;fill:#f2f2f2;stroke-width:5.11666;stop-opacity:1"
   id="path1084" />
<g
   transform="matrix(0.55298636,0,0,0.55298636,38.51694,40.33204)"
   id="g835">
	
</g>

<g
   transform="translate(34.893,40.33204)"
   id="g837">
</g>

<g
   transform="translate(34.893,40.33204)"
   id="g839">
</g>

<g
   transform="translate(34.893,40.33204)"
   id="g841">
</g>

<g
   transform="translate(34.893,40.33204)"
   id="g843">
</g>

<g
   transform="translate(34.893,40.33204)"
   id="g845">
</g>

<g
   transform="translate(34.893,40.33204)"
   id="g847">
</g>

<g
   transform="translate(34.893,40.33204)"
   id="g849">
</g>

<g
   transform="translate(34.893,40.33204)"
   id="g851">
</g>

<g
   transform="translate(34.893,40.33204)"
   id="g853">
</g>

<g
   transform="translate(34.893,40.33204)"
   id="g855">
</g>

<g
   transform="translate(34.893,40.33204)"
   id="g857">
</g>

<g
   transform="translate(34.893,40.33204)"
   id="g859">
</g>

<g
   transform="translate(34.893,40.33204)"
   id="g861">
</g>

<g
   transform="translate(34.893,40.33204)"
   id="g863">
</g>

<g
   transform="translate(34.893,40.33204)"
   id="g865">
</g>

<g
   transform="matrix(0.1927713,0,0,0.1927713,159.1865,33.95097)"
   id="g1019">
  <g
     id="g961">
	<g
   id="g959">
		
		
	</g>

</g>
  <g
     id="g963">
</g>
  <g
     id="g965">
</g>
  <g
     id="g967">
</g>
  <g
     id="g969">
</g>
  <g
     id="g971">
</g>
  <g
     id="g973">
</g>
  <g
     id="g975">
</g>
  <g
     id="g977">
</g>
  <g
     id="g979">
</g>
  <g
     id="g981">
</g>
  <g
     id="g983">
</g>
  <g
     id="g985">
</g>
  <g
     id="g987">
</g>
  <g
     id="g989">
</g>
  <g
     id="g991">
</g>
</g>
</svg>
