<svg height="512" viewBox="0 0 64 64" width="512" xmlns="http://www.w3.org/2000/svg"><g id="Outline"><path d="m28.539 12.633a1 1 0 0 0 .7 1.873 7.858 7.858 0 0 1 5.518 0 1 1 0 0 0 .7-1.873 9.866 9.866 0 0 0 -6.918 0z"/><path d="m37.979 10.47a1 1 0 0 0 .461-1.888 14 14 0 0 0 -12.88 0 1 1 0 1 0 .92 1.776 12 12 0 0 1 11.04 0 1 1 0 0 0 .459.112z"/><path d="m23.729 6.315a15.892 15.892 0 0 1 16.542 0 1 1 0 0 0 1.038-1.71 17.893 17.893 0 0 0 -18.618 0 1 1 0 0 0 1.038 1.71z"/><path d="m56 17.007h-48a6.007 6.007 0 0 0 -6 6v28a6 6 0 0 0 4 5.65v4.35a1 1 0 0 0 1 1h5a1 1 0 0 0 1-1v-4h38v4a1 1 0 0 0 1 1h5a1 1 0 0 0 1-1v-4.35a6 6 0 0 0 4-5.65v-28a6.007 6.007 0 0 0 -6-6zm-45 43h-3v-3h3zm45 0h-3v-3h3zm4-14h-5a1 1 0 0 1 -1-1v-2a1 1 0 0 1 1-1h5zm-5-12h1v6h-1a3 3 0 0 0 -3 3v2a3 3 0 0 0 3 3h1v3h-48v-28h48v3h-1a3 3 0 0 0 -3 3v2a3 3 0 0 0 3 3zm5 6h-2v-6h2zm0-8h-5a1 1 0 0 1 -1-1v-2a1 1 0 0 1 1-1h5zm0-6h-2v-3a2 2 0 0 0 -2-2h-48a2 2 0 0 0 -2 2v28a2 2 0 0 0 2 2h48a2 2 0 0 0 2-2v-3h2v3a4 4 0 0 1 -4 4h-48a4 4 0 0 1 -4-4v-28a4 4 0 0 1 4-4h48a4 4 0 0 1 4 4z"/><path d="m19 29.007a8 8 0 1 0 8 8 8.009 8.009 0 0 0 -8-8zm-3 13.193a5.987 5.987 0 0 1 0-10.377zm4 .721a5.6 5.6 0 0 1 -2 0v-11.821a5.54 5.54 0 0 1 2 0zm2-.721v-10.381a5.987 5.987 0 0 1 0 10.381z"/><path d="m47 26.007h-15a1 1 0 0 0 -1 1v20a1 1 0 0 0 1 1h15a1 1 0 0 0 1-1v-20a1 1 0 0 0 -1-1zm-11 20h-3v-3h3zm0-5h-3v-3h3zm0-5h-3v-3h3zm0-5h-3v-3h3zm5 15h-3v-3h3zm0-5h-3v-3h3zm0-5h-3v-3h3zm0-5h-3v-3h3zm5 15h-3v-3h3zm0-5h-3v-3h3zm0-5h-3v-3h3zm0-5h-3v-3h3z"/></g></svg>