<?xml version="1.0" encoding="UTF-8" standalone="no"?>
<!-- Generator: Adobe Illustrator 16.0.0, SVG Export Plug-In . SVG Version: 6.00 Build 0)  -->

<svg
   xmlns:dc="http://purl.org/dc/elements/1.1/"
   xmlns:cc="http://creativecommons.org/ns#"
   xmlns:rdf="http://www.w3.org/1999/02/22-rdf-syntax-ns#"
   xmlns:svg="http://www.w3.org/2000/svg"
   xmlns="http://www.w3.org/2000/svg"
   xmlns:sodipodi="http://sodipodi.sourceforge.net/DTD/sodipodi-0.dtd"
   xmlns:inkscape="http://www.inkscape.org/namespaces/inkscape"
   version="1.1"
   id="Capa_1"
   x="0px"
   y="0px"
   width="114.01px"
   height="114.01px"
   viewBox="0 0 114.01 114.01"
   style="enable-background:new 0 0 114.01 114.01;"
   xml:space="preserve"
   sodipodi:docname="plant in hand.svg"
   inkscape:version="0.92.2 5c3e80d, 2017-08-06"><metadata
     id="metadata51"><rdf:RDF><cc:Work
         rdf:about=""><dc:format>image/svg+xml</dc:format><dc:type
           rdf:resource="http://purl.org/dc/dcmitype/StillImage" /></cc:Work></rdf:RDF></metadata><defs
     id="defs49" /><sodipodi:namedview
     pagecolor="#ffffff"
     bordercolor="#666666"
     borderopacity="1"
     objecttolerance="10"
     gridtolerance="10"
     guidetolerance="10"
     inkscape:pageopacity="0"
     inkscape:pageshadow="2"
     inkscape:window-width="1174"
     inkscape:window-height="729"
     id="namedview47"
     showgrid="false"
     inkscape:zoom="4.1399876"
     inkscape:cx="19.684714"
     inkscape:cy="52.213247"
     inkscape:window-x="0"
     inkscape:window-y="0"
     inkscape:window-maximized="0"
     inkscape:current-layer="Capa_1" /><g
     id="g14"><g
       id="g12"><path
         d="M 96.807534,86.217161 C 91.875534,79.527161 87.837,78.885 81.035,74.454 75.514,70.86 69.224,71.627 63.366,73.972 59.778,75.406 56.229,75.58 52.78,74.533 48.179,73.144 43.554,72.994 38.859,72.98 c -2.012,-0.008 -3.684,0.697 -4.882,2.275 -0.669,0.883 4.812,4.555 9.514,4.555 -0.873,1.742 -16.07,-1.947 -18.096,-1.797 L 13.898,76.542 C 9.812,76.21 9.818,74.666 5.799,76.938 5.662,77.016 5.462,77.016 5.298,77.006 3.062,76.879 1.8,77.588 0.556,79.069 c -0.718,0.853 -0.659,1.903 -0.277,2.898 0.404,1.044 1.43,0.773 2.271,1.105 5.142,2.036 6.8,3.032 13.772,4.754 4.958,1.225 9.791,2.72 14.743,3.839 2.046,0.466 4.129,0.812 5.975,1.849 3.922,2.21 8.092,2.878 12.573,2.676 5.085,-0.232 10.185,-0.027 15.283,-0.058 8.946,-0.041 16.26982,-1.370304 20.338,-1.141424 l 5.684806,-1.866274 c 5.165758,-2.110954 5.849874,-5.743124 5.888728,-6.907141 z"
         id="path10"
         inkscape:connector-curvature="0"
         sodipodi:nodetypes="cccccccccccccccccccccc" /></g></g><g
     id="g16" /><g
     id="g18" /><g
     id="g20" /><g
     id="g22" /><g
     id="g24" /><g
     id="g26" /><g
     id="g28" /><g
     id="g30" /><g
     id="g32" /><g
     id="g34" /><g
     id="g36" /><g
     id="g38" /><g
     id="g40" /><g
     id="g42" /><g
     id="g44" /></svg>